<?xml version="1.0" encoding="UTF-8"?>
<svg width="23.25" height="23.25" fill="none" version="1.1" viewBox="0 0 23.25 23.25"
    xmlns="http://www.w3.org/2000/svg">
    <path
        d="m11.625 0c-6.4219 0-11.625 5.25-11.625 11.625 0 6.4219 5.2031 11.625 11.625 11.625 6.375 0 11.625-5.2031 11.625-11.625 0-6.375-5.25-11.625-11.625-11.625zm0 20.25c-4.7812 0-8.625-3.8438-8.625-8.625 0-4.7344 3.8438-8.625 8.625-8.625 4.7344 0 8.625 3.8906 8.625 8.625 0 4.7812-3.8906 8.625-8.625 8.625zm0-14.625c-3.3281 0-6 2.7188-6 6 0 3.3281 2.6719 6 6 6 3.2812 0 6-2.6719 6-6 0-3.2812-2.7188-6-6-6zm0 9c-1.6875 0-3-1.3125-3-3 0-1.6406 1.3125-3 3-3 1.6406 0 3 1.3594 3 3 0 1.6875-1.3594 3-3 3z"
        fill="#0f62fe" />
</svg>
